<?xml version="1.0" encoding="utf-8"?>
<!-- Svg Vector Icons : http://www.onlinewebfonts.com/icon -->
<!DOCTYPE svg PUBLIC "-//W3C//DTD SVG 1.1//EN" "http://www.w3.org/Graphics/SVG/1.1/DTD/svg11.dtd">
<svg version="1.1" xmlns="http://www.w3.org/2000/svg" xmlns:xlink="http://www.w3.org/1999/xlink" x="0px" y="0px" viewBox="0 0 256 256" enable-background="new 0 0 256 256" xml:space="preserve">
<metadata> Svg Vector Icons : http://www.onlinewebfonts.com/icon </metadata>
<g><g><path fill="#000000" d="M207.6,60l-50.2-8.9c0,0,2.5,9.8,2.5,18.9c0,12.2,0.1,32.6,0.1,49.8c0,17.6-44.6,17.9-44.3-0.5c0.1-12.9-0.1-20.6-0.1-20.6h0c0.1-1.7,1.5-3.1,3.2-3.1c1.8,0,3.2,1.4,3.2,3.2c0,0,0.1,9.6,0.1,19.8c0,10.7,30.9,11.7,31.3,0.1c0.1-6.3,0.3-26.2,0-54.4c-0.2-28.3-33.4-26.4-33.4-26.4H87.6c-12.9,0-40.8,7.6-40.8,53.5v20.1v34.9v30.5c0,4.6-3.6,8.4-8.1,8.4s-8.1-3.8-8.1-8.4v-18.2v-3.3c0-6.4-4.6-11.5-10.3-11.5c-5.7,0-10.3,5.2-10.3,11.5v18.3c0,0.2,0,0.3,0,0.5c0,0.3,0,0.6,0,0.9c0,16.3,13.4,29.5,30,29.5c16.6,0,30-13.2,30-29.5c0-0.6,0-1.1,0-1.6c0-0.3,0-0.6,0-0.9v-4.9v-11.5c0-5.3,4.5-9.6,10.1-9.6c5.6,0,10.1,4.3,10.1,9.6v11.5V211c0,3.9,3.1,7,7,7l40.1-3.5c3.9,0,7-3.1,7-7v-38.9v-1h0.1c0.5-2.1,2.3-3.6,4.5-3.6h36c2.2,0,4,1.5,4.5,3.6h0.1v1v36c0,3.9,3.1,7,7,7l42.4,5.8c3.9,0,7-3.1,7-7v-42.9c0.1,0,0.1,0,0.1,0v-68C246,72.7,220.4,60,207.6,60L207.6,60z M85.7,72.4c-0.6,0.7-1.4,1.6-2.3,2.5c-1-0.9-2.3-1.5-3.8-1.5c-3.1,0-5.5,2.5-5.5,5.5c0,0.8,0.2,1.6,0.5,2.3c-1.6,0.7-3.3,1.2-4.7,1.1c-2.6-0.1-2.3-3.7-1.3-7.2c1.3-4.6,6-7.3,10.5-7.5C84,67.3,88.3,69.2,85.7,72.4L85.7,72.4z"/><path fill="#000000" d="M212.2,60.5l-54.8-9.3c0,0,2.5,9.1,2.5,18.9l0.1,50.8c0,0-0.7,11.8-22.1,12.3c-21.4,0.5-22.9-13.3-22.1-13.7l-0.1-20.6c0,0,0.3-2.9,3.2-3.1c2.9-0.2,3.2,3.2,3.2,3.2l0.2,20.4c0,0,1.3,7.8,15.9,7.8c14.6,0,15.2-7.2,15.2-7.2l0.2-56.6c0,0,0.8-18.8-20.6-23.9c0,0-2.6-1.4-10.1-1.4l-37.3,0c0,0-32.6,1-37.6,40c0,0-0.9,7.1-0.9,12.1c0,5-0.1,87.9-0.1,87.9s-0.4,5.8-7,7.3c0,0-7.4,1-9.1-7.3l-0.2-24c0,0-0.7-9.1-10.2-9.9c0,0-8.8,0-10.3,9.9l0.3,25.6c0,0,1.8,15.6,17.2,22.5c15.5,6.9,28.8-1.9,30.7-3.4c1.9-1.6,9.7-7.3,11.3-18.4c0,0,0.4-0.6,0.4-10l0.1-15.4c0,0,1.5-7.8,10-8.1c8.4-0.3,10,8.1,10,8.1v57.2c0,0,1.8,7.6,8.7,6.1l39.7-3.4c0,0,5.8-1.2,5.8-6.9c0-5.7,0-40,0-40s1.2-3.6,4.6-3.6s36.7,0,36.7,0s2.7,0.3,4,3.6c1.2,3.2-0.1,0-0.1,0l0.2,37.9c0,0,0.5,6.6,8.9,6.4l33,4.5l7.5,1c0,0,6.9-0.8,7-7V96.6C245.9,96.6,244.6,67.5,212.2,60.5z M86.2,71.7l-2.8,3.2c-3.3-2.8-6.9-0.6-6.9-0.6c-3.9,2.4-1.9,6.8-1.9,6.8l-3.2,1c-1.8,0.5-3.1-0.8-3.1-0.8c-1.4-5.1,2.1-9.7,2.1-9.7c5.6-6,13.4-3.6,13.4-3.6C87.6,69.2,86.2,71.7,86.2,71.7z"/></g></g>
</svg>